<svg id="Layer_1" data-name="Layer 1" xmlns="http://www.w3.org/2000/svg" viewBox="0 0 100 100"><defs><style>.cls-1{fill:#a0a1a2;}.cls-2{fill:#59b4d9;}.cls-3{fill:#fff;opacity:0.2;isolation:isolate;}</style></defs><title>Artboard 1</title><path class="cls-1" d="M41.48,88.76H11.24V59h6A16.5,16.5,0,0,1,16,53.24v-.48H5V95H47.48V69.8H41.24v19Z"/><path class="cls-1" d="M83.48,59H89V89H58.76V69.8H52.52V95H95V52.52H81.56a11.56,11.56,0,0,1,1.68,5.76C83.48,58.76,83.48,58.76,83.48,59Z"/><path class="cls-1" d="M11.24,41V11.24h30V28.52a16.37,16.37,0,0,1,6.24-2.88V5H5V47.48H17.24a15.2,15.2,0,0,1,3.84-6.24L11.24,41Z"/><path class="cls-1" d="M58.76,25.16V11.24h30V41h-13a25.63,25.63,0,0,1,.72,6v.24H95V5H52.76V24.68H54.2A9.92,9.92,0,0,1,58.76,25.16Z"/><path class="cls-2" d="M78.44,58.52a6.71,6.71,0,0,0-6.72-6.72H71a15.47,15.47,0,0,0,.72-4.8A17.93,17.93,0,0,0,54,29a17.58,17.58,0,0,0-16.8,12.24,11.21,11.21,0,0,0-4.08-.72,12.24,12.24,0,0,0,0,24.48H72.44a6.21,6.21,0,0,0,6-6.48"/><path class="cls-3" d="M39.56,65.24a11.53,11.53,0,0,1-3.36-6A12.32,12.32,0,0,1,45.32,44.6a11.71,11.71,0,0,1,4.08-.24A17.88,17.88,0,0,1,59.24,30,20.41,20.41,0,0,0,54,29a17.58,17.58,0,0,0-16.8,12.24,11.21,11.21,0,0,0-4.08-.72,12.24,12.24,0,0,0,0,24.48h6.48Z"/></svg>